<?xml version="1.0" standalone="no"?>
<!DOCTYPE svg PUBLIC "-//W3C//DTD SVG 20010904//EN"
 "http://www.w3.org/TR/2001/REC-SVG-20010904/DTD/svg10.dtd">
<svg version="1.0" xmlns="http://www.w3.org/2000/svg"
 width="1024.000000pt" height="1024.000000pt" viewBox="0 0 1024.000000 1024.000000"
 preserveAspectRatio="xMidYMid meet">
<metadata>
Created by potrace 1.11, written by Peter Selinger 2001-2013
</metadata>
<g transform="translate(0.000000,1024.000000) scale(0.100000,-0.100000)"
fill="#000000" stroke="none">
<path d="M1983 8022 c-29 -4 -29 -9 2 -54 14 -20 25 -39 25 -42 0 -2 19 -37
43 -78 45 -76 265 -457 300 -518 10 -19 50 -87 87 -150 37 -63 156 -270 265
-460 108 -190 206 -357 216 -372 11 -15 19 -29 19 -32 0 -2 39 -71 86 -153 84
-143 102 -174 144 -248 11 -19 28 -50 39 -67 20 -36 159 -277 275 -476 39 -68
80 -140 92 -160 12 -20 38 -66 59 -102 20 -36 45 -78 55 -95 9 -16 120 -208
245 -425 125 -217 236 -408 245 -425 10 -16 41 -70 70 -120 29 -49 62 -108 75
-130 12 -22 132 -229 265 -460 134 -231 254 -438 266 -460 12 -22 76 -134 144
-250 67 -115 163 -281 212 -368 l91 -158 40 68 c81 139 531 919 541 938 6 11
16 27 22 35 7 8 24 38 38 65 15 28 31 57 36 65 20 31 130 222 130 224 0 2 37
66 82 142 44 76 94 164 111 194 16 30 36 62 43 71 8 8 14 18 14 22 0 3 46 86
103 184 57 98 159 275 227 393 68 118 143 248 167 287 24 40 43 75 43 78 0 3
12 24 27 48 15 23 32 51 38 62 13 24 25 43 190 330 71 121 139 240 153 264 14
25 38 68 55 95 16 28 38 65 48 83 10 17 69 120 132 230 63 109 124 214 135
233 10 19 43 76 72 125 29 50 63 108 75 130 13 22 146 254 297 515 151 261
286 495 300 520 14 25 71 123 127 219 56 96 99 176 97 178 -2 3 -581 5 -1287
6 l-1282 2 -127 -220 c-142 -246 -291 -505 -370 -640 -29 -49 -63 -110 -77
-135 -56 -100 -187 -326 -193 -333 -4 -5 -72 103 -150 240 -79 136 -189 327
-245 423 -56 96 -164 283 -240 415 -76 132 -140 242 -142 245 -5 5 -2513 7
-2550 2z"/>
</g>
</svg>
